<svg data-v-423bf9ae="" xmlns="http://www.w3.org/2000/svg" viewBox="0 0 515 112" class="iconLeft"><!----><!----><!----><g data-v-423bf9ae="" id="2cc1728a-0125-4b1c-af00-e9e9e2253cd3" fill="white" transform="matrix(9.693052475501048,0,0,9.693052475501048,129.5591899536131,1.4187437950301387)"><path d="M1.94 8.68L1.94 8.68L1.94 8.68Q2.80 8.68 3.26 8.20L3.26 8.20L3.26 8.20Q3.71 7.72 3.71 6.79L3.71 6.79L3.71 6.79Q3.71 6.23 3.39 5.83L3.39 5.83L3.39 5.83Q3.08 5.43 2.39 5.14L2.39 5.14L2.39 5.14Q2.33 5.10 2.20 5.03L2.20 5.03L2.20 5.03Q2.07 4.97 2.00 4.92L2.00 4.92L2.00 4.92Q1.93 4.87 1.84 4.81L1.84 4.81L1.84 4.81Q1.76 4.74 1.72 4.66L1.72 4.66L1.72 4.66Q1.68 4.58 1.68 4.48L1.68 4.48L1.68 4.48Q1.68 4.11 2.28 4.11L2.28 4.11L2.28 4.11Q2.53 4.11 2.80 4.22L2.80 4.22L2.80 4.22Q3.08 4.32 3.26 4.54L3.26 4.54L3.49 3.64L3.49 3.64Q3.48 3.61 3.44 3.57L3.44 3.57L3.44 3.57Q3.41 3.53 3.29 3.43L3.29 3.43L3.29 3.43Q3.16 3.33 3.01 3.26L3.01 3.26L3.01 3.26Q2.87 3.18 2.60 3.12L2.60 3.12L2.60 3.12Q2.34 3.06 2.04 3.06L2.04 3.06L2.04 3.06Q0.16 3.06 0.16 4.72L0.16 4.72L0.16 4.72Q0.16 5.03 0.25 5.30L0.25 5.30L0.25 5.30Q0.35 5.57 0.47 5.74L0.47 5.74L0.47 5.74Q0.59 5.91 0.78 6.06L0.78 6.06L0.78 6.06Q0.98 6.22 1.09 6.29L1.09 6.29L1.09 6.29Q1.21 6.36 1.38 6.44L1.38 6.44L1.38 6.44Q1.84 6.66 2.03 6.82L2.03 6.82L2.03 6.82Q2.22 6.98 2.22 7.21L2.22 7.21L2.22 7.21Q2.22 7.42 2.05 7.49L2.05 7.49L2.05 7.49Q1.89 7.57 1.51 7.57L1.51 7.57L1.51 7.57Q1.14 7.57 0.82 7.38L0.82 7.38L0.82 7.38Q0.49 7.20 0.30 6.94L0.30 6.94L0.19 8.07L0.19 8.07Q0.28 8.17 0.41 8.26L0.41 8.26L0.41 8.26Q0.54 8.35 0.75 8.46L0.75 8.46L0.75 8.46Q0.96 8.56 1.27 8.62L1.27 8.62L1.27 8.62Q1.58 8.68 1.94 8.68ZM7.34 8.25L7.38 8.20L7.14 7.56L7.14 7.56Q6.99 7.69 6.74 7.75L6.74 7.75L6.74 7.75Q6.50 7.80 6.26 7.80L6.26 7.80L6.26 7.80Q6.16 7.80 6.09 7.79L6.09 7.79L6.09 7.79Q6.02 7.78 5.91 7.72L5.91 7.72L5.91 7.72Q5.80 7.66 5.74 7.55L5.74 7.55L5.74 7.55Q5.67 7.44 5.62 7.22L5.62 7.22L5.62 7.22Q5.57 7 5.57 6.69L5.57 6.69L5.57 6.69Q5.57 5.97 5.73 5.68L5.73 5.68L5.73 5.68Q5.89 5.39 6.31 5.39L6.31 5.39L6.31 5.39Q6.38 5.39 6.42 5.39L6.42 5.39L6.68 6.11L7.35 6.10L7.42 5.01L7.42 5.01Q7.42 5.01 7.32 4.91L7.32 4.91L7.32 4.91Q6.87 4.52 6.06 4.52L6.06 4.52L6.06 4.52Q5.64 4.52 5.28 4.67L5.28 4.67L5.28 4.67Q4.91 4.82 4.65 5.08L4.65 5.08L4.65 5.08Q4.38 5.35 4.22 5.76L4.22 5.76L4.22 5.76Q4.07 6.16 4.07 6.66L4.07 6.66L4.07 6.66Q4.07 7.57 4.57 8.13L4.57 8.13L4.57 8.13Q5.07 8.68 6.02 8.68L6.02 8.68L6.02 8.68Q6.30 8.68 6.54 8.64L6.54 8.64L6.54 8.64Q6.79 8.59 6.94 8.51L6.94 8.51L6.94 8.51Q7.08 8.44 7.19 8.37L7.19 8.37L7.19 8.37Q7.29 8.30 7.34 8.25L7.34 8.25ZM9.76 8.12L9.76 8.12L9.76 8.12Q9.33 8.12 9.33 7.24L9.33 7.24L9.33 5.73L9.33 5.73Q9.33 5.43 9.44 5.26L9.44 5.26L9.44 5.26Q9.55 5.10 9.75 5.10L9.75 5.10L9.75 5.10Q10.18 5.10 10.18 6.01L10.18 6.01L10.18 7.49L10.18 7.49Q10.18 7.78 10.07 7.95L10.07 7.95L10.07 7.95Q9.96 8.12 9.76 8.12ZM9.72 8.68L9.72 8.68L9.72 8.68Q10.83 8.68 11.34 8.17L11.34 8.17L11.34 8.17Q11.86 7.66 11.86 6.58L11.86 6.58L11.86 6.58Q11.86 5.55 11.37 5.04L11.37 5.04L11.37 5.04Q10.88 4.53 9.79 4.53L9.79 4.53L9.79 4.53Q8.66 4.53 8.16 5.06L8.16 5.06L8.16 5.06Q7.66 5.60 7.66 6.65L7.66 6.65L7.66 6.65Q7.66 7.71 8.16 8.20L8.16 8.20L8.16 8.20Q8.65 8.68 9.72 8.68ZM12.37 8.59L13.87 8.59L13.87 6.45L13.87 6.45Q14.01 6.20 14.49 6.20L14.49 6.20L14.49 6.20Q14.82 6.20 14.91 6.29L14.91 6.29L15.07 4.63L15.07 4.63Q14.95 4.59 14.83 4.59L14.83 4.59L14.83 4.59Q13.79 4.59 13.60 5.73L13.60 5.73L13.47 4.62L13.09 4.62L12.09 4.87L12.09 5.39L12.37 5.57L12.37 8.59ZM17.53 6.17L17.53 6.17L16.82 6.17L16.82 5.78L16.82 5.78Q16.82 5.61 16.83 5.50L16.83 5.50L16.83 5.50Q16.85 5.39 16.89 5.29L16.89 5.29L16.89 5.29Q16.93 5.18 17.02 5.14L17.02 5.14L17.02 5.14Q17.11 5.09 17.25 5.09L17.25 5.09L17.25 5.09Q17.41 5.09 17.47 5.33L17.47 5.33L17.47 5.33Q17.53 5.58 17.53 6.17ZM17.16 8.68L17.16 8.68L17.16 8.68Q17.44 8.68 17.75 8.62L17.75 8.62L17.75 8.62Q18.06 8.55 18.39 8.37L18.39 8.37L18.39 8.37Q18.72 8.18 18.90 7.90L18.90 7.90L18.62 7.42L18.62 7.42Q18.49 7.55 18.30 7.63L18.30 7.63L18.30 7.63Q18.10 7.72 17.91 7.77L17.91 7.77L17.91 7.77Q17.72 7.81 17.56 7.81L17.56 7.81L17.56 7.81Q17.39 7.81 17.28 7.78L17.28 7.78L17.28 7.78Q17.16 7.75 17.05 7.67L17.05 7.67L17.05 7.67Q16.94 7.58 16.88 7.41L16.88 7.41L16.88 7.41Q16.82 7.23 16.82 6.95L16.82 6.95L16.82 6.86L18.95 6.86L18.95 6.35L18.95 6.35Q18.95 5.39 18.55 4.96L18.55 4.96L18.55 4.96Q18.16 4.53 17.24 4.53L17.24 4.53L17.24 4.53Q16.28 4.53 15.75 5.06L15.75 5.06L15.75 5.06Q15.22 5.60 15.22 6.65L15.22 6.65L15.22 6.65Q15.22 7.08 15.32 7.44L15.32 7.44L15.32 7.44Q15.42 7.80 15.64 8.08L15.64 8.08L15.64 8.08Q15.87 8.37 16.25 8.53L16.25 8.53L16.25 8.53Q16.64 8.68 17.16 8.68ZM21.05 8.59L22.46 8.59L22.60 5.37L22.63 4.19L23.49 8.04L24.71 8.04L25.42 4.19L25.48 5.37L25.71 8.59L27.16 8.59L26.76 3.12L24.81 3.12L24.45 4.96L24.27 5.88L24.08 4.95L23.67 3.12L21.49 3.12L21.05 8.59ZM29.59 8.22L29.64 8.17L29.79 8.59L31.07 8.59L30.94 8.22L30.94 6.32L30.94 6.32Q30.94 5.81 30.86 5.48L30.86 5.48L30.86 5.48Q30.78 5.14 30.59 4.93L30.59 4.93L30.59 4.93Q30.40 4.71 30.10 4.62L30.10 4.62L30.10 4.62Q29.79 4.53 29.33 4.53L29.33 4.53L29.33 4.53Q28.80 4.53 28.29 4.68L28.29 4.68L28.29 4.68Q27.78 4.84 27.46 5.04L27.46 5.04L27.76 5.68L27.76 5.68Q27.94 5.59 28.25 5.52L28.25 5.52L28.25 5.52Q28.56 5.45 28.85 5.45L28.85 5.45L28.85 5.45Q29.19 5.45 29.34 5.57L29.34 5.57L29.34 5.57Q29.49 5.68 29.49 5.97L29.49 5.97L29.49 6.05L29.49 6.05Q29.33 6.05 29.16 6.07L29.16 6.07L29.16 6.07Q28.99 6.08 28.77 6.12L28.77 6.12L28.77 6.12Q28.55 6.16 28.35 6.23L28.35 6.23L28.35 6.23Q28.15 6.29 27.96 6.40L27.96 6.40L27.96 6.40Q27.76 6.51 27.62 6.65L27.62 6.65L27.62 6.65Q27.48 6.79 27.39 6.99L27.39 6.99L27.39 6.99Q27.30 7.20 27.30 7.44L27.30 7.44L27.30 7.44Q27.30 8.68 28.56 8.68L28.56 8.68L28.56 8.68Q28.75 8.68 28.93 8.63L28.93 8.63L28.93 8.63Q29.11 8.58 29.23 8.50L29.23 8.50L29.23 8.50Q29.35 8.43 29.45 8.35L29.45 8.35L29.45 8.35Q29.54 8.28 29.59 8.22L29.59 8.22ZM29.27 7.86L29.27 7.86L29.27 7.86Q28.87 7.86 28.87 7.28L28.87 7.28L28.87 7.28Q28.87 6.95 29.04 6.80L29.04 6.80L29.04 6.80Q29.21 6.64 29.49 6.64L29.49 6.64L29.49 7.76L29.49 7.76Q29.49 7.76 29.47 7.79L29.47 7.79L29.47 7.79Q29.44 7.81 29.38 7.84L29.38 7.84L29.38 7.84Q29.33 7.86 29.27 7.86ZM31.64 8.59L33.15 8.59L33.15 5.44L33.75 5.44L33.75 4.62L33.15 4.62L33.15 3.95L33.15 3.95Q33.15 3.40 33.51 3.34L33.51 3.34L33.51 3.34Q33.56 3.33 33.62 3.33L33.62 3.33L33.62 3.33Q33.86 3.33 34.09 3.44L34.09 3.44L34.26 2.73L34.26 2.73Q34.19 2.66 33.91 2.58L33.91 2.58L33.91 2.58Q33.63 2.50 33.32 2.50L33.32 2.50L33.32 2.50Q32.96 2.50 32.67 2.58L32.67 2.58L32.67 2.58Q32.39 2.67 32.15 2.86L32.15 2.86L32.15 2.86Q31.92 3.05 31.78 3.40L31.78 3.40L31.78 3.40Q31.65 3.74 31.65 4.21L31.65 4.21L31.65 4.62L31.18 4.82L31.18 5.44L31.64 5.44L31.64 8.59ZM34.15 5.57L34.15 8.59L35.65 8.59L35.65 4.62L34.87 4.62L33.87 4.90L33.87 5.39L34.15 5.57ZM34.06 3.42L34.83 4.19L35.00 4.19L35.80 3.42L35.80 3.26L35.00 2.49L34.83 2.49L34.06 3.26L34.06 3.42ZM38.27 8.22L38.32 8.17L38.47 8.59L39.75 8.59L39.62 8.22L39.62 6.32L39.62 6.32Q39.62 5.81 39.54 5.48L39.54 5.48L39.54 5.48Q39.46 5.14 39.27 4.93L39.27 4.93L39.27 4.93Q39.08 4.71 38.78 4.62L38.78 4.62L38.78 4.62Q38.47 4.53 38.01 4.53L38.01 4.53L38.01 4.53Q37.48 4.53 36.97 4.68L36.97 4.68L36.97 4.68Q36.46 4.84 36.14 5.04L36.14 5.04L36.44 5.68L36.44 5.68Q36.62 5.59 36.93 5.52L36.93 5.52L36.93 5.52Q37.24 5.45 37.53 5.45L37.53 5.45L37.53 5.45Q37.87 5.45 38.02 5.57L38.02 5.57L38.02 5.57Q38.17 5.68 38.17 5.97L38.17 5.97L38.17 6.05L38.17 6.05Q38.01 6.05 37.84 6.07L37.84 6.07L37.84 6.07Q37.67 6.08 37.45 6.12L37.45 6.12L37.45 6.12Q37.23 6.16 37.03 6.23L37.03 6.23L37.03 6.23Q36.83 6.29 36.64 6.40L36.64 6.40L36.64 6.40Q36.44 6.51 36.30 6.65L36.30 6.65L36.30 6.65Q36.16 6.79 36.07 6.99L36.07 6.99L36.07 6.99Q35.98 7.20 35.98 7.44L35.98 7.44L35.98 7.44Q35.98 8.68 37.24 8.68L37.24 8.68L37.24 8.68Q37.43 8.68 37.61 8.63L37.61 8.63L37.61 8.63Q37.79 8.58 37.91 8.50L37.91 8.50L37.91 8.50Q38.03 8.43 38.13 8.35L38.13 8.35L38.13 8.35Q38.22 8.28 38.27 8.22L38.27 8.22ZM37.95 7.86L37.95 7.86L37.95 7.86Q37.55 7.86 37.55 7.28L37.55 7.28L37.55 7.28Q37.55 6.95 37.72 6.80L37.72 6.80L37.72 6.80Q37.89 6.64 38.17 6.64L38.17 6.64L38.17 7.76L38.17 7.76Q38.17 7.76 38.15 7.79L38.15 7.79L38.15 7.79Q38.12 7.81 38.06 7.84L38.06 7.84L38.06 7.84Q38.01 7.86 37.95 7.86Z"></path></g><!----><g data-v-423bf9ae="" id="a89facc5-fe94-4562-af26-8db2776fc6fc" transform="matrix(1.1111000061035157,0,0,1.1111000061035157,0.44496250185506625,0.4455549396545351)" stroke="none" fill="white"><path d="M91.573 22.219l-.725-.528-2.245-2.042-3.144-2.451-3.146-1.471-5.637-2.246-4.7-1.267-3.389-.571-4.454-.531h-5.311l-6.046.163-3.841.573-3.759.816-4.575 1.144-4.002 1.226-4.004 1.471-3.84 2.125-4.575 2.123-2.615 1.797-2.614 2.778-.326 1.308.816 1.551 1.064 1.471 2.612 2.207 3.922 1.633 3.35.736 4.657.898 6.046 1.308 4.942.98 5.761 1.389 14.052 3.759 9.803 3.267 9.969 3.84 6.208 2.777-.734 1.963-4.822-1.963-5.309-2.285-7.11-2.451-5.637-2.042-6.371-1.633-6.783-1.961-6.208-1.553-7.394-1.797-5.433-1.226-7.434-1.226-4.087-1.307-3.676-1.797-1.796-1.553-2.043-2.695-1.062-1.797-3.431 2.696-2.777 3.186.326 1.307 1.715 4.902 2.287 4.249 3.431 5.638 7.026 8.497 7.763 7.922 7.271 5.965 7.189 5.065 7.598 4.25 6.781 2.778 6.373 1.877 3.839.732 3.595.085 5.147.164 2.614-.328-2.451 1.227-2.778.489-4.493.082-4.249-.407-5.146-1.062-4.491-1.472-5.392-2.288-10.619-6.293-7.517-5.393-7.434-6.128-8.334-9.068-4.493-6.21-3.595-6.373-2.37-4.983-.569-2.941h-.738l-2.777 3.351-1.307 3.022 1.062 5.065 1.47 6.453 1.879 7.846 2.369 8.537 3.267 7.149 5.312 7.678 4.657 4.166 3.023 2.451 5.311 3.432-5.965-3.104-7.026-5.801-3.921-4.983-3.269-5.146-3.431-8.904-2.451-8.09-1.144-5.963-.734-2.697-.817-3.267-.655-1.799h-.49l-1.062 2.368-.572 4.249-.393 4.461C3.203 80.664 24.339 99.999 50 99.999c27.614 0 50-22.385 50-49.999a49.758 49.758 0 0 0-8.427-27.781zM3.307 39.216l1.961-2.818 2.247-3.105v-.367l.122-2.451V26.47l.205-3.063.197-.584a49.74 49.74 0 0 0-5.506 11.464l.366 2.232.408 2.697zM1.512 43.996l.775-2.125-.121-3.431.18-3.596A49.94 49.94 0 0 0 0 50c0 .45.022.896.035 1.344l.455-3.345 1.022-4.003zM9.233 31.25l.408-.245 2.533-2.859 3.39-2.696-.081-.409.04-3.431.164-2.125.94-2.287 2.328-4.085 3.432-3.35 3.471-2.981 7.804-4.037c-9.912 3.427-18.405 9.88-24.381 18.258l-.417 2.158v3.391l.122 2.125.247 2.573z"></path><path d="M26.265 7.64l-3.513 2.9-2.859 3.553-2.411 3.964-.572 2.123.287 1.43 1.021.695 1.184-.123 2.124-1.307 5.678-3.227 6.373-2.9 7.353-2.534 6.047-1.511 5.227-.654 5.598-.204h6.129l5.92.695 5.066 1.307 4.044 1.349 4.166 2.409 4.736 2.942 3.375 3.188C82.227 8.612 67.123 0 50 0c-5.566 0-10.914.923-15.915 2.602l-5.04 2.913-2.78 2.125z"></path></g><!----></svg>